HIERARCHY
ROOT Hips
{
	OFFSET	0.00	0.00	0.00
	CHANNELS 6 Xposition Yposition Zposition Zrotation Xrotation Yrotation
	JOINT Spine
	{
		OFFSET	 0.00	0.01	 0.00
		CHANNELS 3 Zrotation Xrotation Yrotation
		JOINT Spine1
		{
			OFFSET	 0.00	 2.45913012437421	 0.00
			CHANNELS 3 Zrotation Xrotation Yrotation
            JOINT Neck
            {
                OFFSET	 0.00	 2.48462964506057	 0.00
                CHANNELS 3 Zrotation Xrotation Yrotation
                JOINT Head
                {
                    OFFSET	 0.00	 0.927524780924562	 0.00
                    CHANNELS 3 Zrotation Xrotation Yrotation
                    End Site 
                    {
                        OFFSET	 0.00	 1.14999962169752	 0.00
                    }
                }
            }
			JOINT LeftShoulder
			{
				OFFSET	 0.00	 2.48462964506057	 0.00
				CHANNELS 3 Zrotation Xrotation Yrotation
				JOINT LeftUpArm
				{
					OFFSET	 0.00	 1.24881979654096	 0.00
					CHANNELS 3 Zrotation Xrotation Yrotation
					JOINT LeftForeArm
					{
						OFFSET	 0.00	2.59758046908119	 0.00
						CHANNELS 3 Zrotation Xrotation Yrotation
						JOINT LeftHand
						{
							OFFSET	 0.00	2.45542024364365	 0.00
							CHANNELS 3 Zrotation Xrotation Yrotation
							JOINT LeftHandThumb 
							{
								OFFSET	 0.00	0.00	 0.00
								CHANNELS 3 Zrotation Xrotation Yrotation
								End Site
								{
									OFFSET	 0.00	0.00	1.00000003353624
								}
							}
							JOINT L_Wrist_End 
							{
								OFFSET	 0.00	0.99999967115358	 0.00
								CHANNELS 3 Zrotation Xrotation Yrotation
								End Site 
								{
									OFFSET	 0.00	 0.00	 0.00
								}
							}
						}
					}
				}
			}
			JOINT RightShoulder
			{
				OFFSET	 0.00	 2.48462964506057	 0.00
				CHANNELS 3 Zrotation Xrotation Yrotation
				JOINT RightUpArm
				{
					OFFSET	 0.00	 1.24881979654096	 0.00
					CHANNELS 3 Zrotation Xrotation Yrotation
					JOINT RightForeArm
					{
						OFFSET	 0.00	2.59758046908119	 0.00
						CHANNELS 3 Zrotation Xrotation Yrotation
						JOINT RightHand
						{
							OFFSET	 0.00	2.45542024364365	 0.00
							CHANNELS 3 Zrotation Xrotation Yrotation
							JOINT RightHandThumb 
							{
								OFFSET	 0.00	0.00	 0.00
								CHANNELS 3 Zrotation Xrotation Yrotation
								End Site
								{
									OFFSET	 0.00	0.00	1.00000003353624
								}
							}
							JOINT R_Wrist_End 
							{
								OFFSET	 0.00	0.99999967115358	 0.00
								CHANNELS 3 Zrotation Xrotation Yrotation
								End Site 
								{
									OFFSET	 0.00	 0.00	 0.00
								}
							}
						}
					}
				}
			}
		}
	}
	JOINT LeftUpLeg
	{
		OFFSET	 1.2719394002717	 0.00	 0.00
		CHANNELS 3 Zrotation Xrotation Yrotation
		JOINT LeftLowLeg
		{
			OFFSET	 0.00	-4.3429100912261	 0.00
			CHANNELS 3 Zrotation Xrotation Yrotation
			JOINT LeftFoot
			{
				OFFSET	 0.00	-4.48767017425826	 0.00
				CHANNELS 3 Zrotation Xrotation Yrotation
				JOINT LeftToeBase
                {
                    OFFSET	 0.00	0.00	 1.51507020887566
                    CHANNELS 3 Zrotation Xrotation Yrotation
                    End Site 
                    {
                        OFFSET	 0.00	0.00	 0.75000010571191
                    }
                }
			}
		}
	}
	JOINT RightUpLeg
	{
		OFFSET	 -1.2719393604653	 0.00	 0.00
		CHANNELS 3 Zrotation Xrotation Yrotation
		JOINT RightLowLeg
		{
			OFFSET	 0.00	-4.3429100912261	 0.00
			CHANNELS 3 Zrotation Xrotation Yrotation
			JOINT RightFoot
			{
				OFFSET	 0.00	-4.48767017425826	 0.00
				CHANNELS 3 Zrotation Xrotation Yrotation
				JOINT RightToeBase
                {
                    OFFSET	 0.00	0.00	 1.51507020887566
                    CHANNELS 3 Zrotation Xrotation Yrotation
                    End Site 
                    {
                        OFFSET	 0.00	0.00	 0.749999965609858
                    }
                }   
			}
		}
	}
}
MOTION 
Frames:	18 
Frame Time: 0.02 
 -0.6402449798583985 2.3428799438476564 9.368040161132813 -157.744 69.9158 -192.366 7.38167 -28.1403 1.25704 -2.63327 8.22604 -1.01809 12.0196 31.3721 -2.03751 -37.8379 -74.3252 -26.4733 -118.677 -1.27216 8.7388 -47.5345 -1.82536 -374.539 0.0 -1.30803 0.0 3.36155 -17.9876 30.9882 0.0 0.0 0.0 0.0 0.0 0.0 120.830795 -4.78435 -2.23244 45.8683 -4.81112 -9.03152 0.0 2.42735 0.0 4.40099 -10.1652 -21.5504 0.0 0.0 0.0 0.0 0.0 0.0 0.433168 -17.1261 -19.9236 0.0 5.4166 0.0 -0.367769 -2.8253994 20.5848 0.0 -11.21895 0.0 7.70373 -15.9 390.919 0.0 5.56615 0.0 4.54356 2.3093996 -27.8245 0.0 -18.32663 0.0 
  -0.6412149810791016 2.3471600341796877 9.367589721679687 -157.749 69.9181 -192.402 7.45471 -28.1665 1.31424 -2.7496 8.14555 -1.0465 12.2027 31.6073 -2.12606 -37.3261 -74.2174 -25.9118 -118.8578 -1.10783 8.9878 -47.1795 -0.677787 -373.57 0.0 -0.841221 0.0 2.23006 -17.9637 32.2013 0.0 0.0 0.0 0.0 0.0 0.0 121.0847 -4.73114 -2.33813 45.6618 -3.92831 -10.1174 0.0 2.99996 0.0 4.96848 -10.172 -22.6749 0.0 0.0 0.0 0.0 0.0 0.0 0.455894 -17.1179 -19.8463 0.0 5.35799 0.0 -0.391782 -2.8227997 20.5484 0.0 -11.19603 0.0 7.72411 -15.9349 390.972 0.0 5.59302 0.0 4.61024 2.2848997 -27.8177 0.0 -18.341301 0.0 
  -0.6429219818115235 2.352799987792969 9.366669921875 -157.732 69.9246 -192.431 7.47835 -28.2691 1.29836 -2.83388 8.25287 -1.08214 12.4091 31.6574 -2.24185 -36.5401 -74.0911 -25.0656 -119.0287 -0.954486 9.1132 -46.8476 0.609756 -372.374 0.0 -0.212775 0.0 1.69114 -17.4157 33.3709 0.0 0.0 0.0 0.0 0.0 0.0 121.3002 -4.54682 -2.40356 45.4864 -3.01032 -11.3009 0.0 3.82085 0.0 4.88825 -9.88347 -24.7771 0.0 0.0 0.0 0.0 0.0 0.0 0.474926 -17.1396 -19.7768 0.0 5.34358 0.0 -0.426498 -2.8407993 20.4779 0.0 -11.18704 0.0 7.74192 -15.969 390.93 0.0 5.60657 0.0 4.60658 2.2823 -27.766 0.0 -18.31793 0.0 
  -0.6449919891357422 2.3576800537109377 9.365999755859375 -157.75 69.9243 -192.439 7.49478 -28.4102 1.282 -2.92618 8.37461 -1.10362 12.5773 31.7399 -2.28983 -35.7117 -73.9735 -24.2371 -119.234695 -0.770646 9.28341 -46.428 1.95618 -371.338 0.0 0.718393 0.0 1.3088 -17.1176 33.0764 0.0 0.0 0.0 0.0 0.0 0.0 121.5683 -4.34602 -2.47426 45.1701 -2.01139 -12.2757 0.0 4.85625 0.0 4.91143 -9.71964 -24.6023 0.0 0.0 0.0 0.0 0.0 0.0 0.491293 -17.157 -19.7127 0.0 5.31499 0.0 -0.436855 -2.8346004 20.4406 0.0 -11.18289 0.0 7.75365 -16.0046 390.972 0.0 5.6084 0.0 4.62054 2.2824001 -27.7799 0.0 -18.33055 0.0 
  -0.6469580078125 2.3655499267578124 9.365280151367188 -157.895 69.9016 -192.398 7.54974 -28.5169 1.37108 -3.06727 8.43173 -1.04881 12.8098 31.8273 -2.43667 -35.067 -73.8635 -23.585 -119.4797 -0.465612 9.50974 -45.8917 3.34743 -370.279 0.0 1.72113 0.0 1.5565 -16.5699 32.2723 0.0 0.0 0.0 0.0 0.0 0.0 121.8287 -4.18458 -2.51107 44.8774 -0.921019 -13.3312 0.0 5.8828 0.0 4.37621 -9.00891 -23.2964 0.0 0.0 0.0 0.0 0.0 0.0 0.480464 -17.2263 -19.6281 0.0 5.31857 0.0 -0.471426 -2.8411999 20.4332 0.0 -11.16974 0.0 7.75153 -16.1136 391.133 0.0 5.66613 0.0 4.72061 2.2180996 -27.7586 0.0 -18.30604 0.0 
  -0.6472789764404296 2.3724099731445314 9.364520263671874 -158.115 69.8946 -192.4 7.69226 -28.6109 1.58035 -3.28009 8.47714 -0.952834 13.1271 31.8883 -2.68137 -34.3785 -73.729 -22.8468 -119.7078 -0.18417 9.65235 -45.3361 4.72405 -369.043 0.0 2.96465 0.0 2.23241 -16.0868 30.178 0.0 0.0 0.0 0.0 0.0 0.0 122.147 -3.98772 -2.57525 44.4508 0.144257 -14.478 0.0 7.18263 0.0 3.63499 -8.38911 -21.0468 0.0 0.0 0.0 0.0 0.0 0.0 0.466045 -17.2439 -19.4417 0.0 5.29228 0.0 -0.450219 -2.8421993 20.4846 0.0 -11.15571 0.0 7.73276 -16.1955 391.243 0.0 5.68508 0.0 4.80977 2.2001 -27.6044 0.0 -18.31897 0.0 
  -0.6480159759521484 2.3800799560546877 9.363930053710938 -157.943 69.9773 -192.521 7.77532 -28.6694 1.61584 -3.43186 8.62466 -1.00423 13.3938 31.8857 -2.89124 -33.6733 -73.5836 -22.0959 -119.9263 0.124344 9.7893 -44.7392 6.15664 -367.626 0.0 4.37102 0.0 3.09793 -15.4806 27.7624 0.0 0.0 0.0 0.0 0.0 0.0 122.3699 -3.74934 -2.65338 44.1093 1.28161 -15.318 0.0 8.54964 0.0 2.47303 -7.47144 -18.449 0.0 0.0 0.0 0.0 0.0 0.0 0.476362 -17.2384 -19.5752 0.0 5.36161 0.0 -0.473833 -2.8736 20.5473 0.0 -11.14832 0.0 7.73588 -16.1277 391.07 0.0 5.62899 0.0 4.82524 2.2422 -27.497 0.0 -18.31686 0.0 
  -0.6500769805908203 2.3877299499511717 9.363419799804687 -157.776 70.0421 -192.57 7.79081 -28.7195 1.57399 -3.57017 8.69024 -1.08212 13.6444 31.961 -3.06793 -33.0398 -73.4499 -21.4682 -120.1352 0.465657 10.0042 -44.1081 7.55431 -366.127 0.0 6.00121 0.0 4.37654 -14.7826 25.7738 0.0 0.0 0.0 0.0 0.0 0.0 122.6448 -3.47367 -2.72788 43.6156 2.35152 -16.5683 0.0 10.1698 0.0 1.19946 -6.79334 -15.4014 0.0 0.0 0.0 0.0 0.0 0.0 0.475128 -17.2795 -19.7497 0.0 5.46436 0.0 -0.553307 -2.9085007 20.5477 0.0 -11.15242 0.0 7.73203 -16.0778 390.849 0.0 5.56371 0.0 4.80325 2.2847004 -27.4302 0.0 -18.30199 0.0 
  -0.6511350250244141 2.3923699951171873 9.363070068359375 -157.878 70.0173 -192.574 7.83976 -28.9689 1.63446 -3.67388 8.92245 -1.01192 13.8356 31.9337 -3.22417 -32.3458 -73.2751 -20.7921 -120.297104 0.845145 10.2512 -43.4833 9.00279 -364.734 0.0 7.77128 0.0 5.72048 -14.0365 23.7855 0.0 0.0 0.0 0.0 0.0 0.0 122.814606 -3.19827 -2.7453 43.2203 3.58062 -17.3751 0.0 11.6153 0.0 -0.0157086 -6.10944 -12.6475 0.0 0.0 0.0 0.0 0.0 0.0 0.479102 -17.3162 -19.7222 0.0 5.44738 0.0 -0.572366 -2.9120007 20.6127 0.0 -11.1604805 0.0 7.72207 -16.1248 390.883 0.0 5.52115 0.0 4.75745 2.3423996 -27.3759 0.0 -18.28632 0.0 
  -0.652615966796875 2.3963099670410157 9.36322998046875 -158.023 70.0476 -192.579 7.84651 -29.189 1.66021 -3.72171 9.16865 -0.930283 13.8586 31.9542 -3.20583 -31.6331 -73.0577 -20.1078 -120.4844 1.19896 10.3656 -42.7952 10.3614 -363.231 0.0 9.62217 0.0 7.14213 -13.1515 22.3065 0.0 0.0 0.0 0.0 0.0 0.0 122.9377 -2.92689 -2.83272 42.8226 4.9177 -17.9978 0.0 13.0125 0.0 -1.25319 -5.28072 -10.6085 0.0 0.0 0.0 0.0 0.0 0.0 0.476536 -17.2803 -19.6692 0.0 5.40982 0.0 -0.570937 -2.8952007 20.7032 0.0 -11.14672 0.0 7.70082 -16.1198 390.956 0.0 5.483 0.0 4.7727 2.3856 -27.31 0.0 -18.28062 0.0 
  -0.6539320373535156 2.4017300415039062 9.363839721679687 -158.078 70.1454 -192.62 7.86625 -29.2697 1.70427 -3.81896 9.30057 -0.882198 13.9541 32.025 -3.2594 -30.916 -72.7973 -19.3343 -120.5906 1.57525 10.5724 -42.1196 11.7348 -362.014 0.0 11.5335 0.0 8.47484 -12.3971 20.9186 0.0 0.0 0.0 0.0 0.0 0.0 123.0783 -2.69862 -2.85915 42.3743 6.17674 -18.6635 0.0 14.5941 0.0 -2.3705 -4.53157 -6.70669 0.0 0.0 0.0 0.0 0.0 0.0 0.463422 -17.2171 -19.6889 0.0 5.43094 0.0 -0.585517 -2.8715992 20.7936 0.0 -11.16531 0.0 7.66368 -16.0465 390.88 0.0 5.42626 0.0 4.83182 2.429 -27.1328 0.0 -18.26929 0.0 
  -0.6550420379638672 2.4002099609375 9.364639892578126 -158.045 70.3462 -192.727 7.80767 -29.3863 1.64492 -3.79612 9.54061 -0.83999 13.8382 32.1076 -3.13477 -30.1898 -72.4411 -18.5457 -120.658005 1.87117 10.6213 -41.5603 13.1 -361.482 0.0 13.2858 0.0 9.51642 -11.524 20.2644 0.0 0.0 0.0 0.0 0.0 0.0 123.028305 -2.37307 -2.78938 42.1162 7.32057 -19.2902 0.0 15.9816 0.0 -3.17833 -4.13165 -5.23945 0.0 0.0 0.0 0.0 0.0 0.0 0.47215 -16.9713 -19.7141 0.0 5.37829 0.0 -0.617693 -2.8495007 20.8602 0.0 -11.19905 0.0 7.61106 -15.7883 390.804 0.0 5.29301 0.0 4.81108 2.5091 -27.0295 0.0 -18.25358 0.0 
  -0.6533709716796875 2.4072200012207032 9.365900268554688 -157.828 70.3875 -192.836 7.89703 -29.4725 1.68828 -3.90475 9.60926 -0.888486 13.7624 32.2313 -3.03238 -29.5952 -72.1391 -17.8927 -120.656296 2.17065 10.5867 -41.0688 14.4415 -361.092 0.0 15.0284 0.0 10.2677 -10.8045 19.7587 0.0 0.0 0.0 0.0 0.0 0.0 122.984604 -2.13614 -2.69258 41.9095 8.47179 -19.653 0.0 17.2489 0.0 -3.65058 -3.61802 -2.50066 0.0 0.0 0.0 0.0 0.0 0.0 0.454477 -17.0521 -20.0238 0.0 5.55135 0.0 -0.66912 -2.8829002 21.0015 0.0 -11.1927395 0.0 7.56938 -15.7125 390.403 0.0 5.13546 0.0 4.83898 2.6309004 -26.7568 0.0 -18.25974 0.0 
  -0.6547200012207032 2.415030059814453 9.367319946289063 -157.821 70.562 -192.96 7.94848 -29.3209 1.83787 -4.00686 9.5174 -0.80283 13.6875 32.4766 -2.90878 -29.2999 -71.9277 -17.5028 -120.6253 2.43297 10.6271 -40.5983 15.7623 -360.895 0.0 16.7875 0.0 10.7291 -10.3325 19.0161 0.0 0.0 0.0 0.0 0.0 0.0 122.9626 -1.90315 -2.66363 41.6698 9.53006 -19.9617 0.0 18.6228 0.0 -4.17848 -3.39892 -1.98742 0.0 0.0 0.0 0.0 0.0 0.0 0.421425 -16.9831 -20.101 0.0 5.70669 0.0 -0.683724 -2.8862 21.1588 0.0 -11.24104 0.0 7.52075 -15.5641 390.223 0.0 5.04452 0.0 4.85439 2.7475996 -26.4854 0.0 -18.23484 0.0 
  -0.6540760040283203 2.421719970703125 9.368740234375 -157.677 70.8247 -193.062 7.97145 -29.1087 1.93337 -4.12356 9.46009 -0.762513 13.6108 32.6833 -2.79886 -29.0668 -71.7293 -17.1371 -120.5499 2.69234 10.7945 -40.1602 17.1386 -360.919 0.0 18.5159 0.0 11.0434 -10.0708 17.9631 0.0 0.0 0.0 0.0 0.0 0.0 122.947296 -1.69127 -2.62271 41.3802 10.5548 -20.6506 0.0 19.9779 0.0 -4.71275 -3.52634 -1.33035 0.0 0.0 0.0 0.0 0.0 0.0 0.331883 -16.8879 -20.2723 0.0 5.9768 0.0 -0.704756 -2.9197998 21.2561 0.0 -11.25059 0.0 7.42736 -15.2978 389.833 0.0 4.92897 0.0 5.00238 2.7735996 -26.1236 0.0 -18.21352 0.0 
  -0.653594970703125 2.424600067138672 9.371719970703126 -157.436 71.1327 -193.125 7.51253 -29.4228 1.40105 -3.54351 10.41 -0.659267 12.8841 32.3332 -2.20816 -28.6802 -71.3938 -16.6163 -120.7294 2.8725 10.3928 -39.8097 18.5722 -360.784 0.0 20.0919 0.0 11.2746 -9.8184 17.838 0.0 0.0 0.0 0.0 0.0 0.0 122.436005 -1.09697 -2.33922 41.3302 11.5335 -21.2023 0.0 21.1383 0.0 -5.27464 -3.21937 -0.984419 0.0 0.0 0.0 0.0 0.0 0.0 0.210089 -16.8008 -20.3286 0.0 6.36501 0.0 -0.696791 -2.9255009 21.1468 0.0 -11.2607 0.0 7.31788 -14.9359 389.343 0.0 4.78 0.0 5.06098 2.8583002 -25.8463 0.0 -18.20377 0.0 
  -0.6497059631347656 2.4319200134277343 9.374030151367187 -156.961 71.4476 -193.198 7.43681 -29.2319 1.31036 -3.54239 10.5225 -0.704859 12.6199 32.3223 -2.00947 -28.4221 -71.1034 -16.2138 -120.6078 3.09273 10.2689 -39.586 19.8917 -360.088 0.0 21.2276 0.0 11.829 -8.96144 18.2013 0.0 0.0 0.0 0.0 0.0 0.0 122.1678 -0.773561 -2.25032 41.4901 12.4359 -21.1697 0.0 21.7301 0.0 -6.01496 -2.54165 -0.324172 0.0 0.0 0.0 0.0 0.0 0.0 0.0172691 -16.856 -20.7601 0.0 7.00043 0.0 -0.620274 -2.9706001 21.1721 0.0 -11.29785 0.0 7.20524 -14.5854 388.774 0.0 4.66885 0.0 5.11704 2.8790998 -25.6862 0.0 -18.14209 0.0 
  -0.6475050354003906 2.432740020751953 9.376179809570312 -156.474 72.0009 -193.413 7.67714 -28.5056 1.81452 -4.08196 9.94069 -0.589723 12.8798 32.7627 -2.27517 -28.3377 -70.826 -15.9979 -120.0464 3.41543 10.5496 -39.7089 21.4108 -358.874 0.0 21.1167 0.0 12.9911 -7.17301 18.3657 0.0 0.0 0.0 0.0 0.0 0.0 122.2301 -0.922234 -2.51889 41.6755 13.3446 -21.0907 0.0 21.856 0.0 -7.57773 -1.70023 0.932888 0.0 0.0 0.0 0.0 0.0 0.0 -0.167105 -16.6161 -20.8682 0.0 7.62175 0.0 -0.543916 -3.042801 21.0512 0.0 -11.32362 0.0 7.12451 -14.0322 388.321 0.0 4.70084 0.0 5.10887 2.8478003 -25.5492 0.0 -18.1001 0.0 
